<?xml version="1.0" encoding="UTF-8" standalone="no"?>
<!-- Created with Inkscape (http://www.inkscape.org/) -->

<svg
   xmlns:osb="http://www.openswatchbook.org/uri/2009/osb"
   xmlns:dc="http://purl.org/dc/elements/1.1/"
   xmlns:cc="http://creativecommons.org/ns#"
   xmlns:rdf="http://www.w3.org/1999/02/22-rdf-syntax-ns#"
   xmlns:svg="http://www.w3.org/2000/svg"
   xmlns="http://www.w3.org/2000/svg"
   xmlns:xlink="http://www.w3.org/1999/xlink"
   xmlns:sodipodi="http://sodipodi.sourceforge.net/DTD/sodipodi-0.dtd"
   xmlns:inkscape="http://www.inkscape.org/namespaces/inkscape"
   width="220"
   height="171.30347"
   id="svg3817"
   version="1.1"
   inkscape:version="0.48.2 r9819"
   sodipodi:docname="delivery-guy-no-text.svg"
   inkscape:export-filename="/Users/lk/www/thatdeliveryguy/src/img/that-delivery-guy.png"
   inkscape:export-xdpi="144.56"
   inkscape:export-ydpi="144.56">
  <defs
     id="defs3819">
    <linearGradient
       id="linearGradient5696"
       osb:paint="solid">
      <stop
         style="stop-color:#000000;stop-opacity:1;"
         offset="0"
         id="stop5698" />
    </linearGradient>
    <linearGradient
       id="linearGradient5690"
       osb:paint="solid">
      <stop
         style="stop-color:#08060b;stop-opacity:1;"
         offset="0"
         id="stop5692" />
    </linearGradient>
    <linearGradient
       id="linearGradient5517"
       osb:paint="solid">
      <stop
         style="stop-color:#0b0608;stop-opacity:1;"
         offset="0"
         id="stop5519" />
    </linearGradient>
    <linearGradient
       id="linearGradient5497"
       osb:paint="solid">
      <stop
         style="stop-color:#01100a;stop-opacity:0.57647061;"
         offset="0"
         id="stop5499" />
    </linearGradient>
    <inkscape:perspective
       sodipodi:type="inkscape:persp3d"
       inkscape:vp_x="-34.969645 : 253.74196 : 1"
       inkscape:vp_y="0 : 1390.5549 : 0"
       inkscape:vp_z="656.14815 : 168.99889 : 1"
       inkscape:persp3d-origin="-30.107648 : 151.96643 : 1"
       id="perspective4634" />
    <linearGradient
       inkscape:collect="always"
       xlink:href="#linearGradient5696"
       id="linearGradient5700"
       x1="-36.349728"
       y1="-51.873947"
       x2="246.49298"
       y2="-51.873947"
       gradientUnits="userSpaceOnUse" />
  </defs>
  <sodipodi:namedview
     id="base"
     pagecolor="#9ac9d7"
     bordercolor="#666666"
     borderopacity="1.0"
     inkscape:pageopacity="0"
     inkscape:pageshadow="2"
     inkscape:zoom="1.9445436"
     inkscape:cx="94.88864"
     inkscape:cy="64.69887"
     inkscape:current-layer="layer1"
     showgrid="true"
     inkscape:document-units="px"
     inkscape:grid-bbox="true"
     inkscape:snap-from-guide="true"
     showguides="true"
     gridtolerance="1"
     inkscape:window-width="1276"
     inkscape:window-height="748"
     inkscape:window-x="36"
     inkscape:window-y="31"
     inkscape:window-maximized="0"
     fit-margin-top="0"
     fit-margin-left="0"
     fit-margin-right="0"
     fit-margin-bottom="0"
     inkscape:guide-bbox="true">
    <inkscape:grid
       type="xygrid"
       id="grid4406"
       empspacing="10"
       visible="true"
       enabled="true"
       snapvisiblegridlinesonly="true" />
  </sodipodi:namedview>
  <metadata
     id="metadata3822">
    <rdf:RDF>
      <cc:Work
         rdf:about="">
        <dc:format>image/svg+xml</dc:format>
        <dc:type
           rdf:resource="http://purl.org/dc/dcmitype/StillImage" />
        <dc:title></dc:title>
      </cc:Work>
    </rdf:RDF>
  </metadata>
  <g
     id="layer1"
     inkscape:label="Layer 1"
     inkscape:groupmode="layer"
     transform="translate(9.655649,123.35447)">
    <path
       style="opacity:0.51293137;fill:#333333;fill-opacity:1;fill-rule:nonzero;stroke-width:1.10399997;stroke-miterlimit:4;stroke-dasharray:6.624, 1.104;stroke-dashoffset:0"
       d="M -6.0133668,33.190853 C -12.213321,35.548345 -7.07102,40.10223 -3.9823946,41.592318 11.064741,44.631984 21.249864,45.295203 38.687671,47.553499 73.218293,49.049661 122.02858,45.8786 163.69904,45.041147 l 18.68857,-5.264795 25.25483,0.01804 c 1.73908,-1.981057 2.94075,-4.622459 0,-6.603515 z"
       id="path4280"
       inkscape:connector-curvature="0"
       sodipodi:nodetypes="cccccccc" />
    <path
       style="fill:#51ce84;fill-opacity:1;fill-rule:nonzero;stroke-width:1.10399997;stroke-miterlimit:4;stroke-dasharray:6.624, 1.104;stroke-dashoffset:0"
       d="m -9.655649,31.70557 30.626499,-30.4862 158.39192,0 30.98158,30.74333 z"
       id="path4278"
       inkscape:connector-curvature="0" />
    <g
       id="g5710"
       style="fill:#ffffff;fill-opacity:1"
       transform="translate(-17.700189,-1.6256464)">
      <rect
         y="-16.339205"
         x="150.04454"
         height="25.465254"
         width="36.999996"
         id="rect3846"
         style="fill:#ffffff;fill-opacity:1;fill-rule:nonzero;stroke:none" />
      <rect
         y="-38.339207"
         x="150.04454"
         height="22"
         width="2"
         id="rect4588"
         style="fill:#ffffff;fill-opacity:1;fill-rule:nonzero;stroke:none" />
      <rect
         y="-38.339207"
         x="150.04454"
         height="2"
         width="28"
         id="rect4590"
         style="fill:#ffffff;fill-opacity:1;fill-rule:nonzero;stroke:none" />
      <rect
         y="-38.330379"
         x="178.04454"
         height="21.991175"
         width="2"
         id="rect4592"
         style="fill:#ffffff;fill-opacity:1;fill-rule:nonzero;stroke:none" />
    </g>
    <rect
       style="fill:#b7c4c8;fill-opacity:1;fill-rule:nonzero;stroke:none"
       id="rect3844"
       width="101.97086"
       height="62.025349"
       x="30.344351"
       y="-54.990845" />
    <rect
       style="fill:#3c3c3c;fill-opacity:1;stroke:none"
       id="rect4387"
       width="139"
       height="5"
       x="30.344351"
       y="7.0351486" />
    <path
       style="fill:#9eb0b4;fill-opacity:1;fill-rule:nonzero;stroke:none"
       d="m 30.344352,7.035148 102.000008,-62 0,62 z"
       id="path4650"
       inkscape:connector-curvature="0" />
    <path
       sodipodi:type="arc"
       style="fill:#3c3c3c;fill-opacity:1;fill-rule:nonzero;stroke:none"
       id="path3851"
       sodipodi:cx="58.545456"
       sodipodi:cy="155.27272"
       sodipodi:rx="13.454545"
       sodipodi:ry="13.454545"
       d="m 72.000001,155.27272 c 0,7.43074 -6.023805,13.45455 -13.454545,13.45455 -7.43074,0 -13.454545,-6.02381 -13.454545,-13.45455 0,-7.43074 6.023805,-13.45454 13.454545,-13.45454 7.393201,0 13.401343,5.96533 13.454201,13.35835"
       transform="matrix(1,0,0,-1,-6.2011042,167.22767)"
       sodipodi:start="0"
       sodipodi:end="6.2760357"
       sodipodi:open="true" />
    <path
       sodipodi:open="true"
       sodipodi:end="6.2760357"
       sodipodi:start="0"
       transform="matrix(1,0,0,-1,72.162532,167.04585)"
       d="m 72.000001,155.27272 c 0,7.43074 -6.023805,13.45455 -13.454545,13.45455 -7.43074,0 -13.454545,-6.02381 -13.454545,-13.45455 0,-7.43074 6.023805,-13.45454 13.454545,-13.45454 7.393201,0 13.401343,5.96533 13.454201,13.35835"
       sodipodi:ry="13.454545"
       sodipodi:rx="13.454545"
       sodipodi:cy="155.27272"
       sodipodi:cx="58.545456"
       id="path3875"
       style="fill:#3c3c3c;fill-opacity:1;fill-rule:nonzero;stroke:none"
       sodipodi:type="arc" />
    <path
       sodipodi:open="true"
       sodipodi:end="6.2760357"
       sodipodi:start="0"
       transform="matrix(0.39322592,0,0,-0.39322592,29.158891,72.848337)"
       d="m 72.000001,155.27272 c 0,7.43074 -6.023805,13.45455 -13.454545,13.45455 -7.43074,0 -13.454545,-6.02381 -13.454545,-13.45455 0,-7.43074 6.023805,-13.45454 13.454545,-13.45454 7.393201,0 13.401343,5.96533 13.454201,13.35835"
       sodipodi:ry="13.454545"
       sodipodi:rx="13.454545"
       sodipodi:cy="155.27272"
       sodipodi:cx="58.545456"
       id="path4400"
       style="fill:#ff9955;fill-opacity:0.73333333;fill-rule:nonzero;stroke:none"
       sodipodi:type="arc" />
    <path
       sodipodi:type="arc"
       style="fill:#ff9955;fill-opacity:0.73333333;fill-rule:nonzero;stroke:none"
       id="path4402"
       sodipodi:cx="58.545456"
       sodipodi:cy="155.27272"
       sodipodi:rx="13.454545"
       sodipodi:ry="13.454545"
       d="m 72.000001,155.27272 c 0,7.43074 -6.023805,13.45455 -13.454545,13.45455 -7.43074,0 -13.454545,-6.02381 -13.454545,-13.45455 0,-7.43074 6.023805,-13.45454 13.454545,-13.45454 7.393201,0 13.401343,5.96533 13.454201,13.35835"
       transform="matrix(0.39322592,0,0,-0.39322592,107.61345,72.848337)"
       sodipodi:start="0"
       sodipodi:end="6.2760357"
       sodipodi:open="true" />
    <rect
       style="fill:#ff9955;fill-opacity:0.73333333;fill-rule:nonzero;stroke:none"
       id="rect4404"
       width="9.999999"
       height="5.9139838"
       x="159.34435"
       y="-10.499596" />
    <g
       id="g4724"
       transform="translate(-26.448633,22.770332)">
      <rect
         y="-48"
         x="166.94894"
         height="2.2648175"
         width="3.8440399"
         id="rect4666"
         style="fill:#ffe6d5;fill-opacity:1;fill-rule:nonzero;stroke:none" />
      <path
         sodipodi:nodetypes="ccccc"
         inkscape:connector-curvature="0"
         id="path4678"
         d="m 165.86533,-46.784267 c 2.53529,0.07341 5.0803,0.02036 7.49831,1.618459 l 1.39758,4.38092 -8.41778,-0.06629 z"
         style="fill:#ffcc00;fill-opacity:1;fill-rule:nonzero;stroke:none" />
      <path
         sodipodi:nodetypes="ccccc"
         inkscape:connector-curvature="0"
         id="path4680"
         d="m 167.89507,-40.909091 -0.0991,-3.280808 c 0.9766,-0.956831 2.11835,-1.033759 3.46857,0 l 0.0991,3.280808 z"
         style="fill:#d5aa00;fill-opacity:1;fill-rule:nonzero;stroke:none" />
      <path
         sodipodi:nodetypes="ccccccccc"
         inkscape:connector-curvature="0"
         id="path4664"
         d="m 164.3408,-54.28585 c 1.03151,-4.276391 5.57538,-2.033195 9.05678,-2.562692 l 0.99466,3.096587 1.66792,2.845279 c -0.46751,0.380706 -0.93625,0.165106 -1.34759,0.160706 l 0.65924,1.242843 -1.2533,2.26889 -7.21502,-0.644883 z"
         style="fill:#ffe6d5;fill-opacity:1;fill-rule:nonzero;stroke:none" />
      <path
         sodipodi:nodetypes="ccc"
         inkscape:connector-curvature="0"
         id="path4668"
         d="m 175.57111,-55.562893 c -3.35557,2.649109 -8.00883,-2.295861 -9.04207,6.807068 -7.48079,-7.994735 5.13122,-14.112388 9.04207,-6.807068 z"
         style="fill:#917c6f;fill-opacity:1;fill-rule:nonzero;stroke:none" />
      <path
         sodipodi:open="true"
         sodipodi:end="6.2760357"
         sodipodi:start="0"
         transform="translate(-0.19294739,-136.5464)"
         d="m 173.62685,83.472015 c 0,0.3994 -0.19426,0.723178 -0.4339,0.723178 -0.23964,0 -0.43391,-0.323778 -0.43391,-0.723178 0,-0.399399 0.19427,-0.723177 0.43391,-0.723177 0.23843,0 0.43219,0.320635 0.43389,0.718007"
         sodipodi:ry="0.72317737"
         sodipodi:rx="0.43390644"
         sodipodi:cy="83.472015"
         sodipodi:cx="173.19295"
         id="path4682"
         style="fill:#2b2200;fill-opacity:1;fill-rule:nonzero;stroke:none"
         sodipodi:type="arc" />
      <path
         inkscape:connector-curvature="0"
         id="path4688"
         d="m 173.30544,-49.362074 1.69456,0.835672 0,0"
         style="fill:#2b2200;fill-opacity:1;fill-rule:nonzero;stroke:none" />
    </g>
    <g
       id="g4142"
       transform="translate(-48.055201,11.080278)">
      <g
         style="opacity:0.25;fill:#000000"
         transform="matrix(0.65265224,0,0,0.65265224,46.533366,-33.370442)"
         id="g3266">
        <path
           inkscape:connector-curvature="0"
           id="path3268"
           d="m 38.344351,-103.51031 c 0.183636,6.43764 -5.815032,12.135709 -12.23517,11.62122 -6.435997,-0.14913 -11.816689,-6.426725 -10.977481,-12.81097 0.478544,-6.41461 7.009101,-11.46665 13.339792,-10.31382 5.51654,0.74707 9.935794,5.84925 9.872562,11.42037"
           style="fill:#000000;fill-opacity:0.94117647;fill-rule:nonzero;stroke-width:1.10399997;stroke-miterlimit:4;stroke-dasharray:6.624, 1.104;stroke-dashoffset:0" />
        <path
           inkscape:connector-curvature="0"
           id="path3270"
           d="m 59.253441,-102.23758 c 0.157429,6.780408 -5.556992,13.023682 -12.405353,13.565963 -6.83144,0.847784 -13.709717,-4.139294 -14.950273,-10.817758 -1.50533,-6.516675 2.65273,-13.654415 9.105552,-15.668085 6.352634,-2.26746 14.022439,0.89768 16.856928,6.94593 0.904142,1.82273 1.380778,3.84753 1.392793,5.87646"
           style="fill:#000000;fill-opacity:0.94117647;fill-rule:nonzero;stroke-width:1.10399997;stroke-miterlimit:4;stroke-dasharray:6.624, 1.104;stroke-dashoffset:0" />
        <path
           inkscape:connector-curvature="0"
           id="path3272"
           d="m 65.798897,-96.146679 c 0.172349,4.292914 -4.872825,7.824663 -9.431181,6.603527 -4.616779,-0.922716 -7.149867,-6.169676 -4.749032,-9.853477 2.098692,-3.808291 8.306908,-4.773861 11.689328,-1.812391 1.559395,1.259315 2.488824,3.122889 2.490692,5.013594"
           style="fill:#000000;fill-opacity:0.94117647;fill-rule:nonzero;stroke-width:1.10399997;stroke-miterlimit:4;stroke-dasharray:6.624, 1.104;stroke-dashoffset:0" />
        <path
           inkscape:connector-curvature="0"
           id="path3274"
           d="m 71.253443,-88.783045 c 0.163884,4.772238 -4.751447,8.77926 -9.393818,7.659344 -4.687789,-0.803525 -7.625204,-6.383203 -5.628155,-10.702533 1.700587,-4.422175 7.710462,-6.221542 11.557263,-3.451676 2.124484,1.406569 3.467937,3.888348 3.46451,6.438968"
           style="fill:#000000;fill-opacity:0.94117647;fill-rule:nonzero;stroke-width:1.10399997;stroke-miterlimit:4;stroke-dasharray:6.624, 1.104;stroke-dashoffset:0" />
        <path
           inkscape:connector-curvature="0"
           id="path3276"
           d="m 58.526169,-85.873953 c 0.153661,4.235675 -4.344446,7.720334 -8.408522,6.51548 -4.116164,-0.910413 -6.374581,-6.087414 -4.234077,-9.722098 1.919829,-3.873861 7.702324,-4.727143 10.655192,-1.567257 1.252259,1.232742 1.984023,2.967896 1.987236,4.725778"
           style="fill:#000000;fill-opacity:0.94117647;fill-rule:nonzero;stroke-width:1.10399997;stroke-miterlimit:4;stroke-dasharray:6.624, 1.104;stroke-dashoffset:0" />
        <path
           inkscape:connector-curvature="0"
           id="path3278"
           d="m 48.526169,-82.510315 c 0.181743,3.70802 -4.538649,6.218665 -7.512073,3.995312 -3.14613,-1.909511 -2.635007,-7.164948 0.818437,-8.434857 3.04556,-1.383476 6.759682,1.056755 6.693513,4.405097"
           style="fill:#000000;fill-opacity:0.94117647;fill-rule:nonzero;stroke-width:1.10399997;stroke-miterlimit:4;stroke-dasharray:6.624, 1.104;stroke-dashoffset:0" />
        <path
           inkscape:connector-curvature="0"
           id="path3280"
           d="m 46.116656,-87.510319 c -0.139858,4.639209 -4.653545,7.495802 -8.653957,8.744079 -6.414105,1.906557 -13.909233,1.426976 -19.490723,-2.498804 -3.06537,-1.998882 -4.822698,-6.348395 -2.663658,-9.621095 3.122801,-4.712792 9.155813,-6.298967 14.512157,-6.439155 5.450287,-0.02926 11.549821,1.406633 15.014863,5.945683 0.777144,1.108956 1.271422,2.436077 1.280911,3.799096"
           style="fill:#000000;fill-opacity:0.94117647;fill-rule:nonzero;stroke-width:1.10399997;stroke-miterlimit:4;stroke-dasharray:6.624, 1.104;stroke-dashoffset:0" />
        <path
           inkscape:connector-curvature="0"
           id="path3282"
           d="m 40.162533,-91.601223 c 0.164043,4.521869 -4.63799,8.241979 -8.976666,6.955715 -4.394283,-0.971927 -6.805296,-6.498725 -4.520163,-10.378996 1.99755,-4.011394 7.906576,-5.028466 11.125987,-1.909048 1.484244,1.326475 2.368881,3.289439 2.370658,5.280982"
           style="fill:#000000;fill-opacity:0.94117647;fill-rule:nonzero;stroke-width:1.10399997;stroke-miterlimit:4;stroke-dasharray:6.624, 1.104;stroke-dashoffset:0" />
        <path
           inkscape:connector-curvature="0"
           id="path3284"
           d="m 56.614404,-87.328495 c -0.478383,3.171732 -4.634383,3.793158 -7.25174,3.299236 -2.469727,-0.06117 -5.455862,-3.129332 -2.972793,-5.230705 2.729065,-2.171611 7.418026,-2.146315 9.773699,0.570051 0.273337,0.389892 0.447432,0.857259 0.450691,1.336719"
           style="fill:#000000;fill-opacity:0.94117647;fill-rule:nonzero;stroke-width:1.10399997;stroke-miterlimit:4;stroke-dasharray:6.624, 1.104;stroke-dashoffset:0" />
        <path
           inkscape:connector-curvature="0"
           id="path3286"
           d="m 25.798898,-91.419403 c 0.169554,5.566246 -5.201416,10.413849 -10.72183,9.677052 -5.5470171,-0.402949 -9.8178128,-6.22375 -8.5350921,-11.637437 0.959566,-5.467506 7.1542161,-9.132272 12.4088671,-7.333652 3.972114,1.178748 6.878097,5.076149 6.847806,9.224491"
           style="fill:#000000;fill-opacity:0.94117647;fill-rule:nonzero;stroke-width:1.10399997;stroke-miterlimit:4;stroke-dasharray:6.624, 1.104;stroke-dashoffset:0" />
      </g>
      <g
         transform="matrix(0.75263644,0,0,0.75263644,38.352814,-29.697421)"
         style="fill:#f5f5f5;fill-opacity:1"
         id="g3254">
        <path
           inkscape:connector-curvature="0"
           id="path3234"
           d="m 34,22.272997 c 0,6.426586 -5.209778,11.636364 -11.636364,11.636364 -6.426586,0 -11.636364,-5.209778 -11.636364,-11.636364 0,-6.426586 5.209778,-11.636364 11.636364,-11.636364 6.394121,0 11.590352,5.159212 11.636067,11.553169"
           style="fill:#f5f5f5;fill-opacity:1;fill-rule:nonzero;stroke-width:1.10399997;stroke-miterlimit:4;stroke-dasharray:6.624, 1.104;stroke-dashoffset:0"
           transform="translate(4.3443514,-125.78331)" />
        <path
           inkscape:connector-curvature="0"
           id="path3236"
           d="m 52.363637,27.545723 c 0,6.12534 -4.965569,11.090909 -11.090909,11.090909 -6.12534,0 -11.090909,-4.965569 -11.090909,-11.090909 0,-6.12534 4.965569,-11.090909 11.090909,-11.090909 6.094396,0 11.047053,4.917374 11.090626,11.011614"
           style="fill:#f5f5f5;fill-opacity:1;fill-rule:nonzero;stroke-width:1.10399997;stroke-miterlimit:4;stroke-dasharray:6.624, 1.104;stroke-dashoffset:0"
           transform="matrix(1.2459016,0,0,1.2295082,-5.9864983,-136.10527)" />
        <path
           inkscape:connector-curvature="0"
           id="path3238"
           d="m 68.727273,32.545723 c 0,5.773886 -4.680659,10.454545 -10.454545,10.454545 -5.773886,0 -10.454545,-4.680659 -10.454545,-10.454545 0,-5.773886 4.680659,-10.454545 10.454545,-10.454545 5.744717,0 10.413206,4.635229 10.454278,10.3798"
           style="fill:#f5f5f5;fill-opacity:1;fill-rule:nonzero;stroke-width:1.10399997;stroke-miterlimit:4;stroke-dasharray:6.624, 1.104;stroke-dashoffset:0"
           transform="matrix(0.72173912,0,0,0.6521739,16.195735,-117.37215)" />
        <path
           inkscape:connector-curvature="0"
           id="path3240"
           d="m 71.454546,44.454815 c 0,4.317863 -3.500319,7.818182 -7.818182,7.818182 -4.317863,0 -7.818182,-3.500319 -7.818182,-7.818182 0,-4.317863 3.500319,-7.818182 7.818182,-7.818182 4.29605,0 7.787267,3.466346 7.817982,7.762285"
           style="fill:#f5f5f5;fill-opacity:1;fill-rule:nonzero;stroke-width:1.10399997;stroke-miterlimit:4;stroke-dasharray:6.624, 1.104;stroke-dashoffset:0"
           transform="translate(-0.20110318,-133.23786)" />
        <path
           inkscape:connector-curvature="0"
           id="path3242"
           d="m 60.363636,47.363907 c 0,3.71537 -3.011902,6.727272 -6.727272,6.727272 -3.71537,0 -6.727273,-3.011902 -6.727273,-6.727272 0,-3.71537 3.011903,-6.727273 6.727273,-6.727273 3.696601,0 6.700672,2.98267 6.727101,6.679176"
           style="fill:#f5f5f5;fill-opacity:1;fill-rule:nonzero;stroke-width:1.10399997;stroke-miterlimit:4;stroke-dasharray:6.624, 1.104;stroke-dashoffset:0"
           transform="translate(-1.8374668,-133.23786)" />
        <path
           inkscape:connector-curvature="0"
           id="path3244"
           d="m 44.181818,43.272995 c 0,2.661008 -2.157174,4.818182 -4.818182,4.818182 -2.661008,0 -4.818182,-2.157174 -4.818182,-4.818182 0,-2.661008 2.157174,-4.818182 4.818182,-4.818182 2.647566,0 4.79913,2.136236 4.818059,4.783734"
           style="fill:#f5f5f5;fill-opacity:1;fill-rule:nonzero;stroke-width:1.10399997;stroke-miterlimit:4;stroke-dasharray:6.624, 1.104;stroke-dashoffset:0"
           transform="translate(4.3443514,-125.78331)" />
        <path
           inkscape:connector-curvature="0"
           id="path3246"
           d="m 47.226851,42.636631 c 0,5.422432 -7.112473,9.818182 -15.886153,9.818182 -8.773679,0 -15.886152,-4.39575 -15.886152,-9.818182 0,-5.422432 7.112473,-9.818182 15.886152,-9.818182 8.729357,0 15.823336,4.353085 15.885746,9.747986"
           style="fill:#f5f5f5;fill-opacity:1;fill-rule:nonzero;stroke-width:1.10399997;stroke-miterlimit:4;stroke-dasharray:6.624, 1.104;stroke-dashoffset:0"
           transform="translate(-1.1101946,-130.14695)" />
        <path
           inkscape:connector-curvature="0"
           id="path3248"
           d="m 35.818182,34.182087 c 0,3.966409 -3.215409,7.181818 -7.181818,7.181818 -3.966409,0 -7.181818,-3.215409 -7.181818,-7.181818 0,-3.966409 3.215409,-7.181818 7.181818,-7.181818 3.946371,0 7.15342,3.184201 7.181634,7.130471"
           style="fill:#f5f5f5;fill-opacity:1;fill-rule:nonzero;stroke-width:1.10399997;stroke-miterlimit:4;stroke-dasharray:6.624, 1.104;stroke-dashoffset:0"
           transform="translate(4.3443514,-125.78331)" />
        <path
           inkscape:connector-curvature="0"
           id="path3250"
           d="m 52.270053,38.454815 c 0,1.907893 -2.502537,3.454545 -5.589572,3.454545 -3.087035,0 -5.589572,-1.546652 -5.589572,-3.454545 0,-1.907893 2.502537,-3.454546 5.589572,-3.454546 3.07144,0 5.56747,1.531641 5.589429,3.429847"
           style="fill:#f5f5f5;fill-opacity:1;fill-rule:nonzero;stroke-width:1.10399997;stroke-miterlimit:4;stroke-dasharray:6.624, 1.104;stroke-dashoffset:0"
           transform="translate(4.3443514,-125.78331)" />
        <path
           inkscape:connector-curvature="0"
           id="path3252"
           d="m 30.000001,40.182087 c 0,5.372224 -4.355049,9.727273 -9.727273,9.727273 -5.372225,0 -9.727273,-4.355049 -9.727273,-9.727273 0,-5.372225 4.355048,-9.727273 9.727273,-9.727273 5.345085,0 9.688809,4.312779 9.727024,9.657727"
           style="fill:#f5f5f5;fill-opacity:1;fill-rule:nonzero;stroke-width:1.10399997;stroke-miterlimit:4;stroke-dasharray:6.624, 1.104;stroke-dashoffset:0"
           transform="translate(-4.2011031,-131.60149)" />
      </g>
    </g>
    <g
       id="g4166"
       transform="translate(-12.910336,-3.2986965)">
      <g
         style="opacity:0.25;fill:#000000"
         transform="matrix(0.5937269,0,0,0.5937269,62.249466,-39.333264)"
         id="g4120">
        <path
           inkscape:connector-curvature="0"
           id="path4122"
           d="m 116.34436,-108.4194 c 0,6.42658 -5.20978,11.636356 -11.63637,11.636356 -6.426589,0 -11.636367,-5.209776 -11.636367,-11.636356 0,-6.42659 5.209778,-11.63637 11.636367,-11.63637 6.39412,0 11.59035,5.15921 11.63607,11.55317"
           style="fill:#000000;fill-opacity:1;fill-rule:nonzero;stroke-width:1.10399997;stroke-miterlimit:4;stroke-dasharray:6.624, 1.104;stroke-dashoffset:0" />
        <path
           inkscape:connector-curvature="0"
           id="path4124"
           d="m 139.07163,-100.23759 c 0,7.531163 -6.18662,13.636366 -13.81819,13.636366 -7.63157,0 -13.81818,-6.105203 -13.81818,-13.636366 0,-7.53115 6.18661,-13.63636 13.81818,-13.63636 7.59302,0 13.76354,6.04595 13.81783,13.53887"
           style="fill:#000000;fill-opacity:1;fill-rule:nonzero;stroke-width:1.10399997;stroke-miterlimit:4;stroke-dasharray:6.624, 1.104;stroke-dashoffset:0" />
        <path
           inkscape:connector-curvature="0"
           id="path4126"
           d="m 115.07163,-86.146679 c 0,3.765579 -3.37821,6.818182 -7.54545,6.818182 -4.16724,0 -7.545464,-3.052603 -7.545464,-6.818182 0,-3.76558 3.378224,-6.81818 7.545464,-6.81818 4.14618,0 7.51561,3.02298 7.54526,6.76943"
           style="fill:#000000;fill-opacity:1;fill-rule:nonzero;stroke-width:1.10399997;stroke-miterlimit:4;stroke-dasharray:6.624, 1.104;stroke-dashoffset:0" />
        <path
           inkscape:connector-curvature="0"
           id="path4128"
           d="m 103.61727,-88.419412 c 0,4.317863 -3.50032,7.818182 -7.818187,7.818182 -4.31786,0 -7.81818,-3.500319 -7.81818,-7.818182 0,-4.317863 3.50032,-7.818185 7.81818,-7.818185 4.296047,0 7.787267,3.466349 7.817987,7.762288"
           style="fill:#000000;fill-opacity:1;fill-rule:nonzero;stroke-width:1.10399997;stroke-miterlimit:4;stroke-dasharray:6.624, 1.104;stroke-dashoffset:0" />
        <path
           inkscape:connector-curvature="0"
           id="path4130"
           d="m 141.61708,-89.692131 c 0,3.71537 -3.0119,6.727272 -6.72727,6.727272 -3.71537,0 -6.72727,-3.011902 -6.72727,-6.727272 0,-3.71537 3.0119,-6.727273 6.72727,-6.727273 3.6966,0 6.70067,2.98267 6.7271,6.679176"
           style="fill:#000000;fill-opacity:1;fill-rule:nonzero;stroke-width:1.10399997;stroke-miterlimit:4;stroke-dasharray:6.624, 1.104;stroke-dashoffset:0" />
        <path
           inkscape:connector-curvature="0"
           id="path4132"
           d="m 123.98071,-89.419405 c 0,2.661008 -2.15717,4.818182 -4.81818,4.818182 -2.66101,0 -4.81818,-2.157174 -4.81818,-4.818182 0,-2.661008 2.15717,-4.818182 4.81818,-4.818182 2.64757,0 4.79913,2.136236 4.81806,4.783734"
           style="fill:#000000;fill-opacity:1;fill-rule:nonzero;stroke-width:1.10399997;stroke-miterlimit:4;stroke-dasharray:6.624, 1.104;stroke-dashoffset:0" />
        <path
           inkscape:connector-curvature="0"
           id="path4134"
           d="m 121.02575,-96.419414 c 0,5.422432 -7.11247,9.818182 -15.88615,9.818182 -8.773685,0 -15.886158,-4.39575 -15.886158,-9.818182 0,-5.422436 7.112473,-9.818176 15.886158,-9.818176 8.72935,0 15.82333,4.35308 15.88574,9.74798"
           style="fill:#000000;fill-opacity:1;fill-rule:nonzero;stroke-width:1.10399997;stroke-miterlimit:4;stroke-dasharray:6.624, 1.104;stroke-dashoffset:0" />
        <path
           inkscape:connector-curvature="0"
           id="path4136"
           d="m 134.34435,-90.873954 c 0,3.966409 -3.21541,7.181818 -7.18182,7.181818 -3.96641,0 -7.18182,-3.215409 -7.18182,-7.181818 0,-3.966409 3.21541,-7.181817 7.18182,-7.181817 3.94637,0 7.15342,3.1842 7.18163,7.13047"
           style="fill:#000000;fill-opacity:1;fill-rule:nonzero;stroke-width:1.10399997;stroke-miterlimit:4;stroke-dasharray:6.624, 1.104;stroke-dashoffset:0" />
        <path
           inkscape:connector-curvature="0"
           id="path4138"
           d="m 146.97804,-87.692135 c 0,1.907893 -2.50254,3.454545 -5.58957,3.454545 -3.08704,0 -5.58958,-1.546652 -5.58958,-3.454545 0,-1.907893 2.50254,-3.454546 5.58958,-3.454546 3.07144,0 5.56747,1.531641 5.58943,3.429847"
           style="fill:#000000;fill-opacity:1;fill-rule:nonzero;stroke-width:1.10399997;stroke-miterlimit:4;stroke-dasharray:6.624, 1.104;stroke-dashoffset:0" />
        <path
           inkscape:connector-curvature="0"
           id="path4140"
           d="m 99.617081,-96.328495 c 0,7.380532 -5.983107,13.363636 -13.363638,13.363636 -7.380533,0 -13.363636,-5.983104 -13.363636,-13.363636 0,-7.380535 5.983103,-13.363645 13.363636,-13.363645 7.343247,0 13.310788,5.92504 13.363298,13.268101"
           style="fill:#000000;fill-opacity:1;fill-rule:nonzero;stroke-width:1.10399997;stroke-miterlimit:4;stroke-dasharray:6.624, 1.104;stroke-dashoffset:0" />
      </g>
      <g
         transform="matrix(0.75263644,0,0,0.75263644,36.984384,-29.697422)"
         id="g4108">
        <path
           style="fill:#f5f5f5;fill-opacity:1;fill-rule:nonzero;stroke-width:1.10399997;stroke-miterlimit:4;stroke-dasharray:6.624, 1.104;stroke-dashoffset:0"
           d="m 116.34436,-108.4194 c 0,6.42658 -5.20978,11.636356 -11.63637,11.636356 -6.426589,0 -11.636367,-5.209776 -11.636367,-11.636356 0,-6.42659 5.209778,-11.63637 11.636367,-11.63637 6.39412,0 11.59035,5.15921 11.63607,11.55317"
           id="path4078"
           inkscape:connector-curvature="0" />
        <path
           style="fill:#f5f5f5;fill-opacity:1;fill-rule:nonzero;stroke-width:1.10399997;stroke-miterlimit:4;stroke-dasharray:6.624, 1.104;stroke-dashoffset:0"
           d="m 139.07163,-100.23759 c 0,7.531163 -6.18662,13.636366 -13.81819,13.636366 -7.63157,0 -13.81818,-6.105203 -13.81818,-13.636366 0,-7.53115 6.18661,-13.63636 13.81818,-13.63636 7.59302,0 13.76354,6.04595 13.81783,13.53887"
           id="path4080"
           inkscape:connector-curvature="0" />
        <path
           style="fill:#f5f5f5;fill-opacity:1;fill-rule:nonzero;stroke-width:1.10399997;stroke-miterlimit:4;stroke-dasharray:6.624, 1.104;stroke-dashoffset:0"
           d="m 115.07163,-86.146679 c 0,3.765579 -3.37821,6.818182 -7.54545,6.818182 -4.16724,0 -7.545464,-3.052603 -7.545464,-6.818182 0,-3.76558 3.378224,-6.81818 7.545464,-6.81818 4.14618,0 7.51561,3.02298 7.54526,6.76943"
           id="path4082"
           inkscape:connector-curvature="0" />
        <path
           style="fill:#f5f5f5;fill-opacity:1;fill-rule:nonzero;stroke-width:1.10399997;stroke-miterlimit:4;stroke-dasharray:6.624, 1.104;stroke-dashoffset:0"
           d="m 103.61727,-88.419412 c 0,4.317863 -3.50032,7.818182 -7.818187,7.818182 -4.31786,0 -7.81818,-3.500319 -7.81818,-7.818182 0,-4.317863 3.50032,-7.818185 7.81818,-7.818185 4.296047,0 7.787267,3.466349 7.817987,7.762288"
           id="path4084"
           inkscape:connector-curvature="0" />
        <path
           style="fill:#f5f5f5;fill-opacity:1;fill-rule:nonzero;stroke-width:1.10399997;stroke-miterlimit:4;stroke-dasharray:6.624, 1.104;stroke-dashoffset:0"
           d="m 141.61708,-89.692131 c 0,3.71537 -3.0119,6.727272 -6.72727,6.727272 -3.71537,0 -6.72727,-3.011902 -6.72727,-6.727272 0,-3.71537 3.0119,-6.727273 6.72727,-6.727273 3.6966,0 6.70067,2.98267 6.7271,6.679176"
           id="path4086"
           inkscape:connector-curvature="0" />
        <path
           style="fill:#f5f5f5;fill-opacity:1;fill-rule:nonzero;stroke-width:1.10399997;stroke-miterlimit:4;stroke-dasharray:6.624, 1.104;stroke-dashoffset:0"
           d="m 123.98071,-89.419405 c 0,2.661008 -2.15717,4.818182 -4.81818,4.818182 -2.66101,0 -4.81818,-2.157174 -4.81818,-4.818182 0,-2.661008 2.15717,-4.818182 4.81818,-4.818182 2.64757,0 4.79913,2.136236 4.81806,4.783734"
           id="path4088"
           inkscape:connector-curvature="0" />
        <path
           style="fill:#f5f5f5;fill-opacity:1;fill-rule:nonzero;stroke-width:1.10399997;stroke-miterlimit:4;stroke-dasharray:6.624, 1.104;stroke-dashoffset:0"
           d="m 121.02575,-96.419414 c 0,5.422432 -7.11247,9.818182 -15.88615,9.818182 -8.773685,0 -15.886158,-4.39575 -15.886158,-9.818182 0,-5.422436 7.112473,-9.818176 15.886158,-9.818176 8.72935,0 15.82333,4.35308 15.88574,9.74798"
           id="path4090"
           inkscape:connector-curvature="0" />
        <path
           style="fill:#f5f5f5;fill-opacity:1;fill-rule:nonzero;stroke-width:1.10399997;stroke-miterlimit:4;stroke-dasharray:6.624, 1.104;stroke-dashoffset:0"
           d="m 134.34435,-90.873954 c 0,3.966409 -3.21541,7.181818 -7.18182,7.181818 -3.96641,0 -7.18182,-3.215409 -7.18182,-7.181818 0,-3.966409 3.21541,-7.181817 7.18182,-7.181817 3.94637,0 7.15342,3.1842 7.18163,7.13047"
           id="path4092"
           inkscape:connector-curvature="0" />
        <path
           style="fill:#f5f5f5;fill-opacity:1;fill-rule:nonzero;stroke-width:1.10399997;stroke-miterlimit:4;stroke-dasharray:6.624, 1.104;stroke-dashoffset:0"
           d="m 146.97804,-87.692135 c 0,1.907893 -2.50254,3.454545 -5.58957,3.454545 -3.08704,0 -5.58958,-1.546652 -5.58958,-3.454545 0,-1.907893 2.50254,-3.454546 5.58958,-3.454546 3.07144,0 5.56747,1.531641 5.58943,3.429847"
           id="path4094"
           inkscape:connector-curvature="0" />
        <path
           style="fill:#f5f5f5;fill-opacity:1;fill-rule:nonzero;stroke-width:1.10399997;stroke-miterlimit:4;stroke-dasharray:6.624, 1.104;stroke-dashoffset:0"
           d="m 99.617081,-96.328495 c 0,7.380532 -5.983107,13.363636 -13.363638,13.363636 -7.380533,0 -13.363636,-5.983104 -13.363636,-13.363636 0,-7.380535 5.983103,-13.363645 13.363636,-13.363645 7.343247,0 13.310788,5.92504 13.363298,13.268101"
           id="path4096"
           inkscape:connector-curvature="0" />
      </g>
    </g>
    <g
       style="opacity:0.25;fill:#000000"
       transform="matrix(-0.33042749,0,0,0.33042749,207.98928,-47.9376)"
       id="g4192">
      <path
         inkscape:connector-curvature="0"
         id="path4194"
         d="m 116.34436,-108.4194 c 0,6.42658 -5.20978,11.636356 -11.63637,11.636356 -6.426589,0 -11.636367,-5.209776 -11.636367,-11.636356 0,-6.42659 5.209778,-11.63637 11.636367,-11.63637 6.39412,0 11.59035,5.15921 11.63607,11.55317"
         style="fill:#000000;fill-opacity:1;fill-rule:nonzero;stroke-width:1.10399997;stroke-miterlimit:4;stroke-dasharray:6.624, 1.104;stroke-dashoffset:0" />
      <path
         inkscape:connector-curvature="0"
         id="path4196"
         d="m 139.07163,-100.23759 c 0,7.531163 -6.18662,13.636366 -13.81819,13.636366 -7.63157,0 -13.81818,-6.105203 -13.81818,-13.636366 0,-7.53115 6.18661,-13.63636 13.81818,-13.63636 7.59302,0 13.76354,6.04595 13.81783,13.53887"
         style="fill:#000000;fill-opacity:1;fill-rule:nonzero;stroke-width:1.10399997;stroke-miterlimit:4;stroke-dasharray:6.624, 1.104;stroke-dashoffset:0" />
      <path
         inkscape:connector-curvature="0"
         id="path4198"
         d="m 115.07163,-86.146679 c 0,3.765579 -3.37821,6.818182 -7.54545,6.818182 -4.16724,0 -7.545464,-3.052603 -7.545464,-6.818182 0,-3.76558 3.378224,-6.81818 7.545464,-6.81818 4.14618,0 7.51561,3.02298 7.54526,6.76943"
         style="fill:#000000;fill-opacity:1;fill-rule:nonzero;stroke-width:1.10399997;stroke-miterlimit:4;stroke-dasharray:6.624, 1.104;stroke-dashoffset:0" />
      <path
         inkscape:connector-curvature="0"
         id="path4200"
         d="m 103.61727,-88.419412 c 0,4.317863 -3.50032,7.818182 -7.818187,7.818182 -4.31786,0 -7.81818,-3.500319 -7.81818,-7.818182 0,-4.317863 3.50032,-7.818185 7.81818,-7.818185 4.296047,0 7.787267,3.466349 7.817987,7.762288"
         style="fill:#000000;fill-opacity:1;fill-rule:nonzero;stroke-width:1.10399997;stroke-miterlimit:4;stroke-dasharray:6.624, 1.104;stroke-dashoffset:0" />
      <path
         inkscape:connector-curvature="0"
         id="path4202"
         d="m 141.61708,-89.692131 c 0,3.71537 -3.0119,6.727272 -6.72727,6.727272 -3.71537,0 -6.72727,-3.011902 -6.72727,-6.727272 0,-3.71537 3.0119,-6.727273 6.72727,-6.727273 3.6966,0 6.70067,2.98267 6.7271,6.679176"
         style="fill:#000000;fill-opacity:1;fill-rule:nonzero;stroke-width:1.10399997;stroke-miterlimit:4;stroke-dasharray:6.624, 1.104;stroke-dashoffset:0" />
      <path
         inkscape:connector-curvature="0"
         id="path4204"
         d="m 123.98071,-89.419405 c 0,2.661008 -2.15717,4.818182 -4.81818,4.818182 -2.66101,0 -4.81818,-2.157174 -4.81818,-4.818182 0,-2.661008 2.15717,-4.818182 4.81818,-4.818182 2.64757,0 4.79913,2.136236 4.81806,4.783734"
         style="fill:#000000;fill-opacity:1;fill-rule:nonzero;stroke-width:1.10399997;stroke-miterlimit:4;stroke-dasharray:6.624, 1.104;stroke-dashoffset:0" />
      <path
         inkscape:connector-curvature="0"
         id="path4206"
         d="m 121.02575,-96.419414 c 0,5.422432 -7.11247,9.818182 -15.88615,9.818182 -8.773685,0 -15.886158,-4.39575 -15.886158,-9.818182 0,-5.422436 7.112473,-9.818176 15.886158,-9.818176 8.72935,0 15.82333,4.35308 15.88574,9.74798"
         style="fill:#000000;fill-opacity:1;fill-rule:nonzero;stroke-width:1.10399997;stroke-miterlimit:4;stroke-dasharray:6.624, 1.104;stroke-dashoffset:0" />
      <path
         inkscape:connector-curvature="0"
         id="path4208"
         d="m 134.34435,-90.873954 c 0,3.966409 -3.21541,7.181818 -7.18182,7.181818 -3.96641,0 -7.18182,-3.215409 -7.18182,-7.181818 0,-3.966409 3.21541,-7.181817 7.18182,-7.181817 3.94637,0 7.15342,3.1842 7.18163,7.13047"
         style="fill:#000000;fill-opacity:1;fill-rule:nonzero;stroke-width:1.10399997;stroke-miterlimit:4;stroke-dasharray:6.624, 1.104;stroke-dashoffset:0" />
      <path
         inkscape:connector-curvature="0"
         id="path4210"
         d="m 146.97804,-87.692135 c 0,1.907893 -2.50254,3.454545 -5.58957,3.454545 -3.08704,0 -5.58958,-1.546652 -5.58958,-3.454545 0,-1.907893 2.50254,-3.454546 5.58958,-3.454546 3.07144,0 5.56747,1.531641 5.58943,3.429847"
         style="fill:#000000;fill-opacity:1;fill-rule:nonzero;stroke-width:1.10399997;stroke-miterlimit:4;stroke-dasharray:6.624, 1.104;stroke-dashoffset:0" />
      <path
         inkscape:connector-curvature="0"
         id="path4212"
         d="m 99.617081,-96.328495 c 0,7.380532 -5.983107,13.363636 -13.363638,13.363636 -7.380533,0 -13.363636,-5.983104 -13.363636,-13.363636 0,-7.380535 5.983103,-13.363645 13.363636,-13.363645 7.343247,0 13.310788,5.92504 13.363298,13.268101"
         style="fill:#000000;fill-opacity:1;fill-rule:nonzero;stroke-width:1.10399997;stroke-miterlimit:4;stroke-dasharray:6.624, 1.104;stroke-dashoffset:0" />
    </g>
    <path
       inkscape:connector-curvature="0"
       id="path4216"
       d="m 164.34435,-87.00881 c 0,2.691873 2.1822,4.874069 4.87408,4.874069 2.69187,0 4.87407,-2.182196 4.87407,-4.874069 0,-2.691877 -2.1822,-4.874075 -4.87407,-4.874075 -2.67828,0 -4.8548,2.161016 -4.87395,4.839225"
       style="fill:#f5f5f5;fill-opacity:1;fill-rule:nonzero;stroke-width:1.10399997;stroke-miterlimit:4;stroke-dasharray:6.624, 1.104;stroke-dashoffset:0" />
    <path
       inkscape:connector-curvature="0"
       id="path4218"
       d="m 154.82468,-83.581731 c 0,3.154545 2.59136,5.711804 5.78796,5.711804 3.19661,0 5.78796,-2.557259 5.78796,-5.711804 0,-3.15454 -2.59135,-5.711802 -5.78796,-5.711802 -3.18045,0 -5.76507,2.53244 -5.78781,5.670967"
       style="fill:#f5f5f5;fill-opacity:1;fill-rule:nonzero;stroke-width:1.10399997;stroke-miterlimit:4;stroke-dasharray:6.624, 1.104;stroke-dashoffset:0" />
    <path
       inkscape:connector-curvature="0"
       id="path4220"
       d="m 164.87745,-77.679534 c 0,1.577272 1.41502,2.855902 3.16053,2.855902 1.74552,0 3.16054,-1.27863 3.16054,-2.855902 0,-1.577271 -1.41502,-2.855901 -3.16054,-2.855901 -1.73669,0 -3.14803,1.266223 -3.16045,2.835482"
       style="fill:#f5f5f5;fill-opacity:1;fill-rule:nonzero;stroke-width:1.10399997;stroke-miterlimit:4;stroke-dasharray:6.624, 1.104;stroke-dashoffset:0" />
    <path
       inkscape:connector-curvature="0"
       id="path4222"
       d="m 169.67529,-80.086048 c 0,1.808604 1.46616,3.274767 3.27477,3.274767 1.8086,0 3.27477,-1.466163 3.27477,-3.274767 0,-1.808604 -1.46617,-3.274769 -3.27477,-3.274769 -1.79947,0 -3.26182,1.451934 -3.27469,3.251355"
       style="fill:#f5f5f5;fill-opacity:1;fill-rule:nonzero;stroke-width:1.10399997;stroke-miterlimit:4;stroke-dasharray:6.624, 1.104;stroke-dashoffset:0" />
    <path
       inkscape:connector-curvature="0"
       id="path4224"
       d="m 153.75848,-79.164601 c 0,1.55624 1.26158,2.817822 2.81782,2.817822 1.55624,0 2.81782,-1.261582 2.81782,-2.817822 0,-1.556241 -1.26158,-2.817824 -2.81782,-2.817824 -1.54838,0 -2.80668,1.249338 -2.81775,2.797677"
       style="fill:#f5f5f5;fill-opacity:1;fill-rule:nonzero;stroke-width:1.10399997;stroke-miterlimit:4;stroke-dasharray:6.624, 1.104;stroke-dashoffset:0" />
    <path
       inkscape:connector-curvature="0"
       id="path4226"
       d="m 161.6003,-77.490134 c 0,1.558313 1.02566,2.821575 2.29089,2.821575 1.26523,0 2.2909,-1.263262 2.2909,-2.821575 0,-1.558313 -1.02567,-2.821574 -2.2909,-2.821574 -1.25884,0 -2.28184,1.251 -2.29084,2.801401"
       style="fill:#f5f5f5;fill-opacity:1;fill-rule:nonzero;stroke-width:1.10399997;stroke-miterlimit:4;stroke-dasharray:6.624, 1.104;stroke-dashoffset:0" />
    <path
       inkscape:connector-curvature="0"
       id="path4228"
       d="m 162.38348,-81.982429 c 0,2.27127 2.97917,4.112499 6.65416,4.112499 3.67499,0 6.65416,-1.841229 6.65416,-4.112499 0,-2.271272 -2.97917,-4.112496 -6.65416,-4.112496 -3.65642,0 -6.62785,1.823356 -6.65399,4.083094"
       style="fill:#f5f5f5;fill-opacity:1;fill-rule:nonzero;stroke-width:1.10399997;stroke-miterlimit:4;stroke-dasharray:6.624, 1.104;stroke-dashoffset:0" />
    <path
       inkscape:connector-curvature="0"
       id="path4230"
       d="m 157.44113,-78.29599 c 0,1.661392 1.34683,3.008216 3.00822,3.008216 1.66139,0 3.00822,-1.346824 3.00822,-3.008216 0,-1.661393 -1.34683,-3.008216 -3.00822,-3.008216 -1.653,0 -2.99632,1.333751 -3.00814,2.986708"
       style="fill:#f5f5f5;fill-opacity:1;fill-rule:nonzero;stroke-width:1.10399997;stroke-miterlimit:4;stroke-dasharray:6.624, 1.104;stroke-dashoffset:0" />
    <path
       inkscape:connector-curvature="0"
       id="path4234"
       d="m 170.34419,-82.262528 c 0,3.267178 2.73146,5.915749 6.10089,5.915749 3.36943,0 6.10089,-2.648571 6.10089,-5.915749 0,-3.267179 -2.73146,-5.915753 -6.10089,-5.915753 -3.3524,0 -6.07676,2.622868 -6.10073,5.873458"
       style="fill:#f5f5f5;fill-opacity:1;fill-rule:nonzero;stroke-width:1.10399997;stroke-miterlimit:4;stroke-dasharray:6.624, 1.104;stroke-dashoffset:0" />
    <rect
       y="31.219372"
       x="-9.5125961"
       height="5"
       width="219.01587"
       id="rect4272"
       style="fill:#6c5353;fill-opacity:1;stroke:none" />
  </g>
</svg>
